<svg xmlns="http://www.w3.org/2000/svg" width="960" height="360" viewBox="0 0 960 360">
  <defs><linearGradient id="sic" x1="0" x2="1"><stop stop-color="#d9c68c"/><stop offset="1" stop-color="#b79c55"/></linearGradient><marker id="arrow" markerWidth="8" markerHeight="8" refX="7" refY="4" orient="auto"><path d="M0,0 L8,4 L0,8 z" fill="#333"/></marker></defs>
  <rect width="960" height="360" fill="#fff"/><text x="480" y="30" text-anchor="middle" font-family="sans-serif" font-size="20">FNG SiC TLD-heating experiment</text>
  <g font-family="sans-serif" text-anchor="middle"><circle cx="85" cy="178" r="7" fill="#e05252"/><text x="85" y="143" font-size="14">D–T source and target</text><line x1="93" y1="178" x2="154" y2="178" stroke="#333" stroke-width="2" marker-end="url(#arrow)"/><text x="124" y="202" font-size="13">5.3 cm</text></g>
  <rect x="160" y="70" width="660" height="215" fill="#d9c68c" stroke="#554a2c" stroke-width="2"/><g stroke="#8f7a3d" opacity=".6"><path d="M207 70v215 M254 70v215 M301 70v215 M348 70v215 M395 70v215 M442 70v215 M489 70v215 M536 70v215 M583 70v215 M630 70v215 M677 70v215 M724 70v215 M771 70v215"/><path d="M160 113h660 M160 156h660 M160 199h660 M160 242h660"/></g>
  <text x="490" y="96" text-anchor="middle" font-family="sans-serif" font-size="15">SiC brick assembly — 45.72 × 45.72 × 71.12 cm</text><line x1="160" y1="178" x2="820" y2="178" stroke="#444" stroke-dasharray="6 5"/>
  <g fill="#d64d64" stroke="#82293a"><circle cx="299" cy="178" r="7"/><circle cx="440" cy="178" r="7"/><circle cx="581" cy="178" r="7"/><circle cx="722" cy="178" r="7"/></g>
  <g font-family="sans-serif" font-size="12" text-anchor="middle" fill="#222"><text x="299" y="225">14.99</text><text x="440" y="225">30.23</text><text x="581" y="225">45.47</text><text x="722" y="225">60.71 cm</text></g>
  <g font-family="sans-serif" font-size="12"><circle cx="408" cy="311" r="6" fill="#d64d64"/><text x="420" y="315">TLD positions</text></g>
</svg>
